<?xml version="1.0" encoding="UTF-8"?>
<svg xmlns="http://www.w3.org/2000/svg" xmlns:xlink="http://www.w3.org/1999/xlink" width="32.743mm" height="32.837mm" viewBox="98.535309 31.848158 32.742569 32.836510">
    <path transform="matrix(0.060527,0,0,-0.060527,70.110382,71.243095)" style="stroke:#0000a0;stroke-width:0.05mm;fill:none" d="M741,638.460144C741,635.812317,741.88092,632.193604,743.113708,629.7771C748.712952,618.801636,750.057861,613.303406,750.077087,601.309021C750.099487,587.366028,748.072388,579.837769,745.441772,584.094177C745.069885,584.695984,743.805786,585.003662,742.632813,584.778015C740.58313,584.383667,740.512573,584.668213,740.822937,592.08075C741.085754,598.359375,740.75769,600.554626,739.058838,603.884644C737.911011,606.134521,736.679382,610.774292,736.321838,614.195129C735.862854,618.586487,735.446655,619.839478,734.906128,618.457458C733.649902,615.245483,733.902222,609.528625,735.5,605C737.421021,599.555176,737.4375,586.491394,735.53009,581.085327C734.72168,578.793945,734.493652,577.187073,735.023438,577.514465C735.553223,577.841919,735.950134,577.072571,735.905396,575.804932C735.860718,574.537231,736.150574,572.45166,736.5495,571.170349L737.274902,568.840698L734.637451,571.285034C733.186829,572.629395,732,574.483154,732,575.40448C732,576.325867,731.100647,578.842529,730.001465,580.997131C726.822449,587.228455,723.026672,600.118042,723.012756,604.729004C723.000671,608.735779,726.04834,620.380859,728.140808,624.323364C728.673096,625.326233,730.065857,628.026184,731.23584,630.323364C734.285034,636.309998,738.935547,643,740.048035,643C740.571594,643,741,640.957092,741,638.460144z"/>
    <path transform="matrix(0.060527,0,0,-0.060527,70.110382,71.243095)" style="stroke:#0000a0;stroke-width:0.05mm;fill:none" d="M801.771362,606.158936L804.042664,604.906799L801.053589,602.391663C799.409607,601.008301,796.606689,596.866821,794.824951,593.188232C788.911621,580.97998,782.223938,573.592102,773.314087,569.425293C766.75885,566.359619,764.639954,566.37439,762.59198,569.5L760.953918,572L764.939819,572C768.317261,572,769.544617,572.644043,772.979614,576.218872C775.209229,578.539246,777.960999,582.35376,779.094666,584.695557C780.228271,587.037292,782.50531,590.088806,784.154663,591.476685C787.619141,594.391846,787.162964,594.645691,782.465454,592.416565C780.573242,591.518677,777.486023,588.44812,775.33429,585.323914C771.541321,579.816711,765.03894,575,761.397339,575C759.254639,575,751.857849,571.311707,750.861816,569.746582C749.6651,567.866211,747.916321,569.975098,748.997314,571.994934C749.548767,573.025391,750,574.962402,750,576.299377C750,577.636414,750.825378,579.803467,751.834229,581.115112C752.843018,582.426819,754.356628,584.849976,755.197815,586.5C758.759949,593.487488,759.947998,595.296692,763.277283,598.803772C768.43335,604.235168,770.98761,605.775513,777.5,607.380798C781.339844,608.327332,799.495911,607.41333,801.771362,606.158936z"/>
    <path transform="matrix(0.060527,0,0,-0.060527,70.110382,71.243095)" style="stroke:#0000a0;stroke-width:0.05mm;fill:none" d="M694.864746,593.107849C702.718201,592.368896,706.561523,591.474854,710.851868,589.388855C716.442749,586.670532,727,576.889221,727,574.427673C727,573.735901,725.987488,572.031616,724.75,570.640381L722.5,568.110779L719.885315,570.612854C717.935852,572.478333,715.200562,573.476257,709.13385,574.535339C704.658569,575.31665,699.760193,576.727295,698.248474,577.670166L695.5,579.38446L698.367493,576.264893C701.360413,573.00885,703.749695,571.794434,710.595886,570.049744C715.294739,568.852234,723,563.633667,723,561.648743C723,559.148376,726.753845,556.736877,729.92218,557.201904C731.966614,557.501953,733.105652,557.166992,733.495483,556.151123C734.49707,553.541016,730.509521,552.121765,727.180359,553.903503C726.251892,554.400391,720.993958,555.335205,715.496094,555.980896C704.622986,557.257813,699.856018,559.324036,694.545166,565.061951C691.30426,568.563538,686,576.558838,686,577.942444C686,578.422607,684.913818,580.994446,683.586182,583.657715C682.258606,586.320984,680.954041,590.393127,680.687134,592.706909C680.211975,596.82605,680.246948,596.884277,682.363831,595.497253C683.552917,594.71814,689.178345,593.642883,694.864746,593.107849z"/>
    <path transform="matrix(0.060527,0,0,-0.060527,70.110382,71.243095)" style="stroke:#0000a0;stroke-width:0.05mm;fill:none" d="M744.960449,582C746.312012,582,748.217468,576.260498,747.556885,574.179138C746.847717,571.944885,740.353577,570.606812,738.25,572.261597C735.155701,574.695679,739.218811,583.897461,742.783813,582.52948C743.542664,582.238281,744.522156,582,744.960449,582z"/>
    <path transform="matrix(0.060527,0,0,-0.060527,70.110382,71.243095)" style="stroke:#0000a0;stroke-width:0.05mm;fill:none" d="M734.213623,565.81366C733.546143,565.146118,733,563.880005,733,563C733,558.599182,727.809082,558.513245,725.580322,562.877075C723.90863,566.150391,725.077637,569.70752,728.226501,570.928955C731.195862,572.08075,736.20282,567.802856,734.213623,565.81366z"/>
    <path transform="matrix(0.060527,0,0,-0.060527,70.110382,71.243095)" style="stroke:#0000a0;stroke-width:0.05mm;fill:none" d="M760.443298,568.777466C762.552307,565.766418,762.401062,562.672913,760.040283,560.536438C757.108337,557.883057,753.588989,559.174316,752.299255,563.376587C751.38739,566.347839,751.526489,567.082031,753.346008,568.901611C756.051819,571.607422,758.491028,571.564758,760.443298,568.777466z"/>
    <path transform="matrix(0.060527,0,0,-0.060527,70.110382,71.243095)" style="stroke:#0000a0;stroke-width:0.05mm;fill:none" d="M748.20575,566.94812C751.006348,564.147522,751.204834,563.509399,750.616211,559.19812C749.255005,549.227356,739.121765,548.041016,736.00415,557.487427C734.571045,561.829712,735.406067,564.854187,738.836182,567.745056C742.41748,570.763306,744.573975,570.579834,748.20575,566.94812z"/>
    <path transform="matrix(0.060527,0,0,-0.060527,70.110382,71.243095)" style="stroke:#0000a0;stroke-width:0.05mm;fill:none" d="M779.5,559.828003C785.65918,558.315796,790.583496,554.361389,795.331116,547.11499C801.251648,538.078308,804.651428,530.266846,805.447937,523.870239C805.815735,520.916626,805.75293,519.01239,805.30835,519.638672C804.091553,521.352783,797.187195,522.984863,791,523.020935C780.098633,523.084534,767.924194,529.411377,761.491089,538.356079C759.32251,541.371338,758.615417,543.66095,758.248413,548.856079C757.809021,555.075867,757.96167,555.702698,760.639526,558.675049C763.384277,561.721619,763.742798,561.829102,769.5,561.330078C772.799988,561.044067,777.299988,560.368164,779.5,559.828003z"/>
    <path transform="matrix(0.060527,0,0,-0.060527,70.110382,71.243095)" style="stroke:#0000a0;stroke-width:0.05mm;fill:none" d="M755.34198,549.317383C757.279724,542.530579,753.456665,538.160278,748.45105,541.440125C745.217285,543.55896,745.115601,548.4328,748.25,551.078857C751.489197,553.813416,754.254333,553.126648,755.34198,549.317383z"/>
    <path transform="matrix(0.060527,0,0,-0.060527,70.110382,71.243095)" style="stroke:#0000a0;stroke-width:0.05mm;fill:none" d="M738.443298,549.777466C739.2995,548.555115,740,546.547668,740,545.316467C740,542.872375,736.457581,539,734.221741,539C732.297974,539,729.073792,543.056213,729.033264,545.527466C728.982361,548.631592,731.827332,552,734.5,552C735.832642,552,737.574097,551.018494,738.443298,549.777466z"/>
    <path transform="matrix(0.060527,0,0,-0.060527,70.110382,71.243095)" style="stroke:#0000a0;stroke-width:0.05mm;fill:none" d="M726.444824,548.75C726.654968,548.0625,727.058716,546.142151,727.341919,544.482605C727.817017,541.699158,727.520874,541.326172,723.522888,539.672607C719.471863,537.99707,714,532.042664,714,529.309937C714,528.714478,711.839539,525.926208,709.199036,523.113647C706.558533,520.301147,704.578003,518,704.797913,518C708.146729,518,718,526.928772,718,529.963379C718,532.238037,727.260193,537,731.683594,537L735.975586,537L732.886292,531.25C731.187134,528.087524,729.167603,524.789551,728.398438,523.921265C727.629333,523.052979,726.997925,521.927979,726.995361,521.421265C726.986755,519.70697,720.902466,513.990906,716.928406,511.96347C709.478394,508.162781,693.155701,507.382446,685.748047,510.4729L682.996094,511.621002L685.941223,513.798401C687.572998,515.004883,690.319397,518.99115,692.100159,522.737915C697.800598,534.731812,705.69574,543.507446,714.5,547.635864C719.940186,550.18689,725.837524,550.736938,726.444824,548.75z"/>
    <path transform="matrix(0.060527,0,0,-0.060527,70.110382,71.243095)" style="stroke:#0000a0;stroke-width:0.05mm;fill:none" d="M752.146057,538.688538C755.43689,538.777893,755.937012,538.432617,757.280273,535.143738C760.555664,527.124207,764.022705,515.317627,764.011658,512.221069C763.998474,508.505707,758.705688,491.725952,756.471436,488.31604C755.66217,487.080933,755,485.605591,755,485.037506C755,483.559509,747.98999,474,746.906189,474C746.407776,474,746,476.084381,746,478.631958C746,481.427734,745.245178,484.5,744.095947,486.381958C743.048767,488.096893,740.95697,493.100006,739.447632,497.5C737.091309,504.369019,736.707458,507.06308,736.732544,516.556335C736.757324,525.944763,737.096985,528.282959,738.984131,532.056335C741.600525,537.287781,744.884949,540.246399,747,539.277039C747.825012,538.898865,750.140686,538.634094,752.146057,538.688538z"/>
    <path transform="matrix(0.060527,0,0,-0.060527,70.110382,71.243095)" style="stroke:#0000a0;stroke-width:0.05mm;fill:none" d="M765.257202,552C769.048157,538.608582,772.499207,535.262451,783.799011,534.022034C787.57251,533.607849,791.973938,532.446899,793.579956,531.4422L796.5,529.61554L793.527771,532.844421C791.521851,535.023621,788.758484,536.560669,785.027771,537.572327C777.163513,539.704895,773.85553,541.59845,771,545.602051C767.085938,551.089722,764.791199,553.646301,765.257202,552z"/>
    <path transform="matrix(0.060527,0,0,-0.060527,70.110382,71.243095)" style="stroke:#0000a0;stroke-width:0.05mm;fill:none" d="M752.300903,530.326111C749.729492,526.953308,749.502197,525.949524,749.526794,518.076111C749.547852,511.342041,749.96228,508.888153,751.456421,506.651367C752.502991,505.084625,753.923035,501.709625,754.612122,499.151367L755.86499,494.5L755.932495,498.436096C755.969604,500.600983,755.274597,505.264618,754.388,508.799774C752.741272,515.365967,752.890015,522.850525,754.814209,530.25C755.350525,532.3125,755.634644,534,755.445557,534C755.25647,534,753.84137,532.346741,752.300903,530.326111z"/>
    <path transform="matrix(0.060527,0,0,-0.060527,70.110382,71.243095)" style="stroke:#0000a0;stroke-width:0.05mm;fill:none" d="M740.872009,649.243408C737.384155,646.929565,727,634.064087,727,632.056641C727,631.436768,726.31604,629.885803,725.480164,628.610046C724.644226,627.33429,722.628113,622.512634,720.999878,617.895203C717.85321,608.971863,717.091675,599.653992,718.9729,593.094543L719.94574,589.702332L717.709229,591.803406C713.728333,595.543335,708.023743,597.155212,695.561523,598.061523C688.927673,598.544006,683.410278,598.952515,683.300659,598.96936C683.19104,598.986206,681.730652,600.462524,680.055298,602.25L677.009277,605.5L677.004639,597.883362C676.999817,589.953979,678.371521,585.144592,683.814941,574.00531C688.688538,564.032043,701.008972,551,705.564087,551C706.25885,551,704.446045,548.521729,701.535645,545.492737C698.625244,542.463684,694.686401,536.951233,692.782593,533.242737C684.237915,516.597961,683.788879,516.002075,678.5,514.289612L675.5,513.318298L678.131897,510.961853C683.257507,506.372711,701.832703,504.604858,715.306213,507.423889C722.371033,508.902039,723.343689,509.406342,728.75,514.393982L732,517.392334L732,511.571198C732,507.670166,732.788086,503.894714,734.389282,500.125031C744.665649,475.931396,744.50592,476.496948,742.614197,471.006287C741.240906,467.020294,741.256958,466.945953,743.355286,467.574707C746.377258,468.480255,752.769409,474.782196,755.334717,479.385101C765.635986,497.868408,769.919983,512.108643,768.079773,521.75C767.630859,524.101868,767.655212,526,768.134277,526C768.610413,526,769,525.598877,769,525.108582C769,523.070618,778.249329,520.638733,790.455261,519.467346C803.021362,518.261475,803.49408,518.130615,806.191162,515.112061C807.72052,513.400452,809.203125,512,809.485901,512C809.768677,512,810,514.263,810,517.028931C810,524.816895,801.391235,548.770569,797.402649,552.080811C796.631165,552.721069,795.997925,553.752319,795.995361,554.372437C795.990601,555.540527,791.902649,560.123718,787.987122,563.350891C786.751953,564.368958,783.887085,565.786926,781.620728,566.502075C779.354309,567.217163,778.262573,567.846741,779.194641,567.901123C782.512085,568.094666,790.424316,577.668762,795.421692,587.536438C801.091858,598.732483,803.97821,602.526733,807.49707,603.409912C811.236938,604.348572,810.527466,606.567017,805.75,608.872864C799.174744,612.046509,791.579773,613.270142,781.608948,612.762207C771.140137,612.229004,765.3349,610.104187,759.19751,604.559448L755.234314,600.979004L754.769104,607.239502C754.419373,611.946533,752.901428,616.762817,748.651978,626.649231C742.983704,639.836304,742.161804,643.665161,743.97522,648.434875C745.120483,651.447144,744.455139,651.620483,740.872009,649.243408z"/>
    <path transform="matrix(0.060527,0,0,-0.060527,70.285286,69.473793)" style="stroke:none;fill:#d33f6a;fill-rule:evenodd" d="M794.866821,456.566803C793.015076,454.12854,789.838989,451.189636,787.808838,450.035889C785.578857,448.768585,780.959229,443.757935,776.139221,437.37851L768.160767,426.818848L768.665771,409.659424C769.044678,396.785736,769.640015,391.001434,771.049316,386.5C773.936829,377.277252,774.342896,371.333496,772.586426,364C771.730164,360.424988,771.022888,354.211212,771.014771,350.191589C770.993835,339.821289,769.299561,325.365234,766.538757,312C765.232239,305.674988,763.386353,296,762.436768,290.5C760.450745,278.996399,759.656433,276.909149,755.63324,272.621002C750.018677,266.636749,748.470459,258.596405,751.525085,251.28566C753.845276,245.732742,770.052246,230.7379,778.451233,226.373352C782.328064,224.358749,787.299988,221.530182,789.5,220.087631C794.171387,217.024582,803.31842,213.469376,818,209.010437C823.775024,207.256516,829.0625,205.650772,829.75,205.442123C830.4375,205.233475,831,205.86264,831,206.840256C831,210.520416,828.422485,211.920975,816.155762,214.906281C806.356873,217.291,802.33606,218.825638,796.655762,222.348846C792.720093,224.789963,786.006714,228.607452,781.737183,230.832169C777.46759,233.05687,772.834839,236.231308,771.442078,237.886459C770.049377,239.541611,766.758484,242.475067,764.129089,244.405243C759.327698,247.92981,757.892029,250.657059,756.577759,258.75C756.197144,261.094055,756.432495,262,757.42218,262C758.528748,262,773.140686,251.969025,777.588806,248.155701C779.599121,246.432297,794.784607,238.075699,801.471313,235.013123C805.113159,233.345154,813.520569,230.166,820.15448,227.948349C826.788452,225.730713,835.306335,222.360107,839.08313,220.45813C845.431702,217.261032,853,215.819595,853,217.807556C853,218.251709,851.125854,219.441986,848.835205,220.452606C846.544556,221.463242,842.672058,223.638779,840.229675,225.28714C836.390625,227.878067,830.663879,230.466995,810.5,238.727188C800.791809,242.704193,785.164612,251.2267,781.5,254.542786C779.299988,256.533539,774.641113,260.018463,771.146973,262.287048C765.615845,265.878113,761.9776,270.310944,763.396667,271.72998C764.395081,272.728424,767.758057,270.826447,768.717468,268.720734C769.414001,267.191956,771.765991,265.792358,776.119202,264.316071C779.628662,263.125977,787.674988,260.276184,794,257.983215C800.325012,255.690262,806.808838,253.416977,808.408447,252.931458C810.008118,252.445953,817.348877,249.043991,824.721191,245.371536C838.836426,238.340195,843.689941,237.126587,852.444397,238.439392C854.949951,238.815125,856.99176,239.657471,856.98175,240.311279C856.97168,240.965073,853.335999,245.324997,848.902466,250C825.646057,274.522797,825.604492,274.575867,826.582397,278.47226C827.085693,280.477509,826.758118,281.153931,824.962097,281.818329L822.710999,282.651062L825.503418,285.240356C829.146545,288.618439,835.787354,291.614502,836.977112,290.41684C837.478088,289.912567,838.371216,286.465912,838.961914,282.757599C840.859497,270.845337,841.246094,270.505127,859,265.124542C871.994995,261.186218,876.362854,260.527374,877.82196,262.285492C878.744873,263.397491,878.26062,264.620789,875.489685,268.177399C873.566345,270.646088,870.981873,273.126709,869.746338,273.68985C868.510864,274.253021,864.189514,276.238342,860.143311,278.101685L852.786682,281.489594L853.041626,293.494781C853.42981,311.772797,854.184631,310.09848,844.5,312.441833L839.5,313.651672L847.138245,317.240479C851.339233,319.214325,855.160522,321.430176,855.630005,322.164642C856.099426,322.899078,856.410339,326.537506,856.320923,330.25C856.231506,333.962494,856.512024,337,856.944275,337C859.093628,337,863.091309,332.422424,864.195984,328.69635C866.481201,320.988708,870.909546,315.850281,889,299.915253C892.665588,296.686432,907.915466,288.582123,908.751831,289.418488C909.018066,289.684723,908.408386,292.203888,907.396912,295.016602C906.105042,298.609253,903.812134,301.821747,899.689392,305.815308C896.461731,308.941895,892.305115,313.715881,890.452515,316.424225C887.475098,320.776855,873.251465,333,871.163879,333C870.72821,333,868.884521,334.984863,867.066833,337.410797C864.807983,340.425507,861.669556,342.87851,857.151306,345.160797C850.118225,348.713348,842,355.673248,842,358.150238C842,359.429199,844.402161,359.591888,858.75,359.284637C889.475098,358.626678,896.159668,356.972809,904.963684,347.850494C911.852051,340.713104,924,322.81134,924,319.797729C924,319.253784,924.939819,317.488861,926.088562,315.875671C927.237244,314.262482,928.586304,311.460541,929.086426,309.649139C929.586609,307.837738,931.789185,304.588165,933.981079,302.427856C936.172974,300.267517,937.973938,297.712494,937.983154,296.75C937.996765,295.339294,938.892212,295,942.601563,295L947.203064,295L944.575195,299.25C941.652039,303.9776,939.315735,308.796143,935.968994,317C934.734985,320.024994,932.699951,324.524994,931.446655,327C922.892273,343.893646,918.984985,351.212341,917.128113,353.820099C915.957642,355.463867,915,357.229492,915,357.743713C915,359.621979,903.384277,370.854248,899.370789,372.856964C897.09967,373.990204,892.501221,375.358734,889.151917,375.898132C877.410645,377.789001,870.934937,382.484406,857.879272,398.573364C854.787842,402.383026,849.011963,408.875,845.043945,413C841.075989,417.125,837.386597,421.399994,836.845276,422.5C829.77124,436.876282,823.383789,444.983795,816.053467,448.890808C811.618591,451.254578,809.751221,452.992828,807.9021,456.478485C805.730835,460.571289,805.158813,461,801.86853,461C798.741516,461,797.763123,460.380493,794.866821,456.566803z"/>
    <path transform="matrix(0.060527,0,0,-0.060527,70.285286,69.473793)" style="stroke:none;fill:#d33f6a;fill-rule:evenodd" d="M803.646362,450.503296C805.616516,449.680115,808.807434,447.620239,810.737305,445.925781C812.667175,444.231323,815.315796,442.357605,816.623108,441.761963C818.58667,440.867279,819,439.934784,819,436.399078C819,434.045135,820.125,429.000427,821.5,425.188599C822.875,421.376801,824,417.501617,824,416.577118C824,411.909546,831.900024,403.702911,839.204834,400.782227C840.562073,400.239532,841,398.958862,841,395.532227C841,389.634949,840.176575,389.681091,827.502319,396.288177L817.5047,401.5L817.502319,415.5C817.499329,433.41272,816.061951,436.643219,804.804932,444.03653C802.772705,445.371277,800.635193,447.50528,800.054932,448.778748C798.309509,452.609497,798.447205,452.675629,803.646362,450.503296z"/>
    <path transform="matrix(0.060527,0,0,-0.060527,70.285286,69.473793)" style="stroke:none;fill:#d33f6a;fill-rule:evenodd" d="M792.895386,439.649658L791.631104,432.12561L785.565552,431.261292C782.229492,430.785919,779.355042,430.490143,779.177795,430.604004C779.00061,430.717865,779.953674,432.550476,781.295776,434.676483C783.888977,438.784332,793.049194,448.284149,793.745544,447.587799C793.973267,447.360046,793.590698,443.787872,792.895386,439.649658z"/>
    <path transform="matrix(0.060527,0,0,-0.060527,70.285286,69.473793)" style="stroke:none;fill:#d33f6a;fill-rule:evenodd" d="M806.337646,437.308563C810.788208,435.033478,813.299072,428.210388,813.810974,417L814.244751,407.5L812.122375,409.404999C810.955078,410.452728,810,411.860138,810,412.532532C810,413.204956,809.292114,414.342621,808.426941,415.060669C807.561707,415.778717,805.981995,417.971313,804.916443,419.933105C802.842834,423.750824,801.525513,425.933411,798.75,430.150085C797.787476,431.612335,797,434.462524,797,436.483826C797,440.106964,797.045898,440.149017,800.25,439.459015C802.037476,439.074066,804.776917,438.106384,806.337646,437.308563z"/>
    <path transform="matrix(0.060527,0,0,-0.060527,70.285286,69.473793)" style="stroke:none;fill:#d33f6a;fill-rule:evenodd" d="M794,427.611481C794,426.847778,795.567139,424.485291,797.482483,422.361481C802.479858,416.820221,809.942078,406.690186,809.973328,405.404999C809.988037,404.802734,810.900024,403.495483,812,402.5C813.099976,401.504517,814,400.290558,814,399.802307C814,399.314056,815.813416,396.459869,818.029785,393.459686C822.057129,388.008087,828,377.378967,828,375.627472C828,375.117279,829.175476,372.179871,830.612122,369.099915C835.570679,358.469757,836.850403,355.491058,837.529053,353C838.100342,350.903015,837.553223,351.213623,834.135132,354.926758C831.89386,357.36145,829.379883,360.786957,828.548523,362.539001C827.717163,364.291016,826.353577,366.291565,825.518433,366.98468C824.683289,367.677795,824,368.611359,824,369.059235C824,369.507141,821.96521,372.845703,819.47821,376.478302C813.245117,385.582672,808.458435,395.287231,806.396606,403C804.827393,408.870026,801.813477,414,799.934082,414C798.929321,414,798.263245,410.718445,797.469666,401.857422C796.87323,395.198364,797.02417,393.964508,798.642578,392.269684C800.812683,389.99707,802.230225,387.881287,804.97522,382.817841C806.07312,380.792664,807.402283,378.869415,807.928894,378.543945C809.738281,377.42569,818.060547,358.837616,818.637939,354.624969C819.128052,351.049011,818.815247,349.933868,816.575134,347.271637C815.122803,345.545654,812.374084,343.6185,810.466797,342.989044C808.136536,342.219971,806.799683,341.050079,806.391113,339.422302C805.959839,337.703918,805.088196,337,803.391602,337C801.158325,337,801,337.365387,801,342.519867C801,346.100403,800.121643,350.201385,798.5,354.192291C797.125,357.576172,796,361.146057,796,362.125366C796,365.53717,793.741272,369,791.515869,369C789.256653,369,789.246826,368.967163,784.832153,346.648499C784.131348,343.105499,784.29425,338.921021,785.436279,331.133942C788.00238,313.635559,787.277222,268.863892,784.641113,282.044342C784.288513,283.807465,783.991699,286.881256,783.981567,288.875C783.948792,295.323425,781.176331,308.321167,778.302368,315.5C775.803284,321.742432,775.523804,323.582245,775.720215,332.5C775.968628,343.780762,778.019287,358.280762,780.316589,365C783.263855,373.620575,784.960144,380.578918,786.048584,388.513336C786.651123,392.906006,787.561707,398.127197,788.072083,400.116028C789.844055,407.021179,788.297363,415.546753,784.015808,422.474396C780.716003,427.813599,780.975525,428.026917,791.75,428.831909C793.08374,428.931549,794,428.43457,794,427.611481z"/>
    <path transform="matrix(0.060527,0,0,-0.060527,70.285286,69.473793)" style="stroke:none;fill:#d33f6a;fill-rule:evenodd" d="M779.601501,422.227753C782.532104,419.818298,785.012024,412.845917,784.935913,407.229767C784.830933,399.487,781.579163,382.976654,779.960754,381.969513C778.827698,381.264374,778.347473,381.782745,777.820007,384.280212C777.446045,386.051086,776.223206,389.975006,775.102661,393C773.456055,397.445129,773.059021,400.945404,773.032654,411.25C773.000427,423.821716,773.031494,423.999695,775.25,423.977753C776.487488,423.965546,778.445679,423.17804,779.601501,422.227753z"/>
    <path transform="matrix(0.060527,0,0,-0.060527,70.285286,69.473793)" style="stroke:none;fill:#d33f6a;fill-rule:evenodd" d="M868.78363,378.187653C869.932983,377.190826,872.00592,375.524719,873.390259,374.485138L875.907227,372.595001L868.203613,369.959137C863.966614,368.50943,857.917786,366.075378,854.76178,364.55014C849.544067,362.028564,845.980469,361.68988,846.012268,363.718628C846.018982,364.148376,850.294006,366.707367,855.512268,369.405243C864.122925,373.857056,865,374.573486,865,377.155243C865,380.461212,865.884094,380.702423,868.78363,378.187653z"/>
    <path transform="matrix(0.060527,0,0,-0.060527,70.285286,69.473793)" style="stroke:none;fill:#d33f6a;fill-rule:evenodd" d="M851.383972,342.819672C856.695251,341.29657,856.554382,341.495026,854.524414,338.396942C853.199097,336.374268,852.927734,334.602448,853.399048,331.0495C853.935364,327.006317,853.711792,326.092072,851.760071,324.348511C847.852478,320.857697,833.065857,315,828.16156,315C824.098816,315,810.093689,319.091919,808.07251,320.869476C807.052795,321.766266,805.956665,323.957031,805.636658,325.737823C805.137451,328.516205,805.370239,329.036621,807.277405,329.405151C812.668701,330.44693,827.128662,332.968933,834,334.065887C844.051086,335.670502,844,335.639648,844,340.106995C844,344.501556,844.665894,344.746185,851.383972,342.819672z"/>
    <path transform="matrix(0.060527,0,0,-0.060527,70.285286,69.473793)" style="stroke:none;fill:#d33f6a;fill-rule:evenodd" d="M811.873291,310.883484C816.243286,308.619385,822.672058,305.988251,826.159363,305.036469C830.864624,303.752319,832.573975,302.815186,832.786865,301.403015C833.044861,299.691711,832.392761,299.5,826.313232,299.5L819.552673,299.5L818.930237,295.728241C818.011841,290.1633,814.594116,287,809.5,287C804.876831,287,802.253845,284.857147,800.05426,279.283142C799.356079,277.513885,798.158264,275.546295,797.392395,274.910706C796.626587,274.275116,796,272.239594,796,270.387268C796,267.523743,796.705627,266.507355,800.71228,263.599701C803.304077,261.718872,807.241577,259.600342,809.46228,258.891907C813.707947,257.537506,818.324158,254.990814,817.6875,254.354187C817.481323,254.147995,811.279785,255.617172,803.906311,257.619019C790.431213,261.277374,782.598694,264.413727,783.18457,265.916504C783.358032,266.361511,785.390137,270.499847,787.700256,275.112793C796.208252,292.101715,800.708008,302.65448,802.043335,308.75C802.796387,312.1875,803.528503,315,803.670166,315C803.81189,315,807.503296,313.147552,811.873291,310.883484z"/>
    <path transform="matrix(0.060527,0,0,-0.060527,70.285286,69.473793)" style="stroke:none;fill:#d33f6a;fill-rule:evenodd" d="M841.635315,310.062775C850.165161,308.905243,850.5,308.234375,850.5,292.303406L850.5,278.678467L853.504822,276.996521C855.157471,276.071442,858.194946,274.998413,860.254822,274.611969C863.150085,274.068817,864,273.439362,864,271.838196C864,269.917206,863.537231,269.796478,857.618591,270.17334C847.752808,270.801544,842,275.747406,842,283.601105C842,284.867554,840.672302,289.862915,839.049622,294.701874C836.954285,300.950287,835.215454,304.292877,833.049622,306.235901C828.924133,309.937012,828.938843,312.391998,833.081055,311.482208C834.775574,311.110016,838.625,310.471252,841.635315,310.062775z"/>
    <path transform="matrix(0.060527,0,0,-0.060527,70.285286,69.473793)" style="stroke:none;fill:#d33f6a;fill-rule:evenodd" d="M827.102905,248.200974C825.788086,247.762711,823,249.763626,823,251.145493C823,251.640839,824.186462,251.268723,825.636536,250.318573C827.08667,249.368423,827.746521,248.415512,827.102905,248.200974z"/>
    <path transform="matrix(0.060527,0,0,-0.060527,70.285286,69.473793)" style="stroke:none;fill:#d33f6a;fill-rule:evenodd" d="M678.926208,450.089966C669.95105,448.828613,660.539063,438.657288,651.858948,420.839111C650.160461,417.3526,648.28717,413.600006,647.695923,412.5C647.104736,411.399994,645.840027,408.904022,644.885437,406.9534C643.447144,404.014221,634.900269,394.007965,633.81842,393.996674C633.643311,393.994843,629.186768,393.156433,623.915039,392.133575C617.249634,390.840271,613.524231,389.57309,611.684326,387.973328C608.882813,385.537415,604,377.029755,604,374.58432C604,371.352539,598.299805,360.164795,594.021667,355C584.797424,343.863861,574.794983,335.237823,563.969177,329.082794C558.177185,325.789764,552.491577,322.061493,551.334412,320.797729C549.182678,318.447723,547.191772,311.306335,544.97876,298C544.258301,293.668213,542.732056,288.924957,541.365723,286.771454C540.064575,284.720734,539,282.634674,539,282.135742C539,281.63681,538.327759,279.939667,537.506165,278.364319C534.726074,273.033691,535.786011,271.803741,540.886841,274.441467C543.938538,276.019562,549,285.883667,549,290.25293C549,291.629486,549.625427,294.273193,550.389832,296.127869C551.154236,297.982544,552.102173,302.784943,552.496338,306.799835C553.422363,316.232452,555.62854,318.921143,566.602356,323.991058C571.16095,326.097137,575.918884,328.778137,577.175476,329.948853C578.432068,331.119568,580.581848,332.358917,581.952759,332.703003C583.323669,333.047058,586.932617,334.828491,589.972656,336.661713C593.012695,338.494934,595.911499,339.996002,596.41449,339.997437C598.378479,340.00296,618.929932,362.530243,620.542603,366.445282C627.454956,383.225708,627.107971,382.688721,632.543152,385.018494C634.782532,385.978394,638.016602,388.279419,639.730042,390.131866C642.993469,393.660126,654,409.77948,654,411.03064C654,411.429108,654.747375,412.372711,655.660767,413.127563C657.189819,414.391144,657.265564,413.984375,656.615295,408C656.226807,404.424988,655.334106,399.25,654.63147,396.5C653.47644,391.979218,652.768005,391.116608,647.239563,387.5L641.125061,383.5L641.0625,377.756287C641.001587,372.159515,640.891235,371.936157,636.75,369.027008C630.505615,364.640472,626.687927,360.475311,624.069092,355.191864C615.747681,338.403412,613.219055,334.731415,608.370605,332.394745C606.649414,331.565247,602.937866,328.549591,600.122681,325.693298C594.684143,320.175293,581.655334,301.783722,580.61853,298.161041C580.27832,296.972473,579.74469,295.100006,579.432617,294C578.971313,292.373962,579.342773,292,581.419189,292C583.327332,292,584.351135,292.821869,585.467896,295.25C587.930115,300.603485,590.513306,304.697906,594.604431,309.731476C599.119385,315.28653,609.687988,325.830383,612.915833,328C617.820435,331.296692,621.746338,335.746002,623.945313,340.5C631.31958,356.442413,635.079773,361.292877,644.5,367.014404C646.700012,368.350616,650.001343,370.806488,651.836304,372.471924C653.671265,374.13736,655.921265,375.805878,656.836304,376.179718C658.984558,377.057404,668.850403,377.179932,672.856689,376.378662L675.963379,375.757324L673.753784,372.628662C672.538513,370.907898,669.621765,367.482849,667.272095,365.017487C664.922424,362.552094,663,359.949615,663,359.234222C663,357.115112,658.386047,348.653503,656.108093,346.595001C654.948608,345.547272,654,343.859772,654,342.845001C654,341.830261,653.635986,341,653.191101,341C650.04126,341,646,349.441101,646,356.020233C646,359.734192,645.808594,360,643.133972,360C640.548828,360,640.058838,359.426422,638.133972,354.147339C636.960266,350.928375,636,347.821594,636,347.243408C636,345.377716,629.468262,334.605255,626.151062,331C622.843323,327.404999,618.559692,319.18338,616.781677,313.017059C614.642334,305.597931,609.741577,296.93573,605.337097,292.788513C600.272705,288.019989,596.185791,282.134521,594.952332,277.833771C594.250977,275.388214,594.416687,275,596.162231,275C599.047119,275,617.249939,287.212952,620.104919,291.064026C623.30481,295.380432,631.300537,303.38797,638.403931,309.390198C644.492188,314.534637,647.238342,319.350037,649.139587,328.21521C650.00769,332.263214,650.523987,333,652.492371,333L654.81897,333L653.298767,327.75C652.324158,324.384064,651.597534,316.280365,651.274109,305.168671C650.831726,289.971802,650.989685,287.349274,652.556702,283.874298C654.215515,280.19574,654.86322,279.758423,661.581116,277.782013C668.45636,275.759277,668.773987,275.535797,667.929871,273.315491C667.441101,272.030029,667.309204,269.023102,667.63678,266.633453L668.2323,262.288605L659.61615,258.000214C650.642334,253.533768,650.130859,252.8452,651.63031,247.25C652.466309,244.130402,655.086914,244.389496,664,248.472977C671.382935,251.855408,675.032715,255.06189,683.475281,265.582642C686.660828,269.552338,691.286377,272,695.602722,272L698.269714,272L695.634888,269.927429C693.860413,268.531647,693,266.898895,693,264.927429C693,262.045685,693.085876,262,698.5,262C701.525024,262,704,261.586456,704,261.081055C704,260.575623,703.212524,258.74411,702.25,257.011047C700.574524,253.994171,700.297363,253.885803,695.739807,254.465805C688.216187,255.423264,683.758301,253.669373,677.256042,247.193649C671.081055,241.0439,663.990967,236,661.521423,236C660.632263,236,660,235.108398,660,233.854584C660,231.770279,660.277649,231.72464,669.75,232.252121C677.146118,232.664001,681.152466,233.458206,686.344727,235.541794C693.701172,238.493866,699,242.294464,699,244.618835C699,245.707947,699.716919,245.529846,701.935425,243.889603C704.210938,242.20726,705.76709,241.839554,708.8573,242.254028C716.83606,243.324203,721,249.071793,721,259.014862C721,264.6875,720.873108,264.990143,718.25,265.573883C712.234863,266.912537,711.756287,267.156281,712.899353,268.299347C713.5047,268.904694,714,270.426422,714,271.680939C714,274.495483,710.003418,275.778229,706.379211,274.126923C702.305176,272.27066,701.997986,272.79364,704.545044,277.25C705.881042,279.587494,707.488464,284.087494,708.117188,287.25C709.374329,293.574097,711.087952,294.616089,712.92749,290.175018C713.571106,288.621307,716.100647,285.168335,718.548828,282.501801C720.996948,279.835266,723,277.464966,723,277.234497C723,277.004028,723.900024,275.671295,725,274.272858C726.267273,272.661804,727,270.216095,727,267.59729C727,261.736908,730.756226,256.455933,735.566406,255.553528C739.016113,254.906357,739.188782,254.693985,738.611755,251.808731C738.275269,250.126419,738,247.071198,738,245.019333L738,241.288681L730.591248,240.728348C719.81189,239.913116,715.162292,236.932709,717.311401,232.215912C718.881775,228.769241,725.533203,225.743301,733,225.078613C739.129456,224.53299,739.557007,224.328979,740.5,221.5C743.344421,212.966827,759.948303,195.61499,762.667419,198.334076C763.913574,199.580215,759.410522,212.871765,756.649841,216.095978C755.742432,217.155762,755,218.477371,755,219.032867C755,219.588379,753.974976,221.720734,752.722107,223.771439C749.765808,228.610535,747.754578,232.296387,744.549866,238.748337L741.942993,243.996689L744.064819,249.248337C745.231873,252.136749,746.592773,255.529404,747.08905,256.787567C747.585327,258.045746,748.271606,261.459351,748.614075,264.373383L749.236755,269.671631L743.868408,271.772034C740.915771,272.927277,737.043518,274.160583,735.263306,274.512756C732.841919,274.99176,730.889832,276.647919,727.513306,281.087708C725.031006,284.351746,723,287.412201,723,287.888733C723,288.365234,722.312927,289.325317,721.473206,290.022247C718.455811,292.526459,713.998657,300.157654,713.430298,303.792755C712.743652,308.184387,713.872192,313.178497,717.521851,321.89917C719.700195,327.104126,720.191956,329.81012,720.157043,336.39917C720.080444,350.83963,716.199951,369.609009,711.349609,379C710.084351,381.449768,709.385559,385.662018,709.020935,393.037811C708.513672,403.29892,708.402405,403.705902,704.781921,408.537811C702.737,411.267029,699.816162,415.975006,698.29126,419C695.679443,424.18103,695.518127,425.26825,695.509338,437.746307L695.5,450.992615L689.5,450.862701C686.200012,450.791229,681.441772,450.443512,678.926208,450.089966z"/>
    <path transform="matrix(0.060527,0,0,-0.060527,70.285286,69.473793)" style="stroke:none;fill:#d33f6a;fill-rule:evenodd" d="M690.393005,444.418213C690.726868,443.548218,691,436.815735,691,429.457123L691,416.07782L695.643188,410.377289C702.5849,401.854706,702.993591,400.72876,702.319336,391.984985C701.669495,383.5578,702.82196,378.424622,706.469604,373.5C711.141296,367.192841,716.399292,345,713.221985,345C712.170532,345,704,354.67511,704,355.920197C704,356.282593,700.962524,358.264191,697.25,360.3237C693.537476,362.38324,689.73407,364.599518,688.797974,365.248779C686.295715,366.984283,685.328979,365.288574,687.056091,362.193298C688.014709,360.475311,690.091492,359.011658,692.791138,358.151428C698.835327,356.225555,703.832703,350.50708,708.620728,340.037872C709.491577,338.133698,711.465271,335.045746,713.006653,333.175781C715.476624,330.179291,715.671753,329.462769,714.651001,327.137909C712.694275,322.681183,709.744202,318.855042,708.915161,319.698639C708.154785,320.472351,704.195557,330.117615,699.579712,342.440918C696.444458,350.811432,694.705078,350.98056,695.233826,342.863464C695.614868,337.013855,697.157654,332.191101,702.067871,321.5C706.115967,312.685913,708.848755,304.462189,708.010376,303.617218C706.738159,302.335022,704,303.662109,704,305.560883C704,306.453888,703.099976,308.328705,702,309.727142C700.900024,311.125549,700,313.144775,700,314.214294C700,316.282532,695.834656,327.820892,693.579346,332C689.634521,339.309723,685.971069,347.035309,684.428284,351.297852C683.100647,354.965973,682.315979,355.944092,681.095886,355.451904C680.21814,355.097839,679.049988,354.62204,678.5,354.394592C677.950012,354.167145,676.417175,356.025055,675.093689,358.523285L672.687317,363.065521L675.904236,366.210632C677.673523,367.94046,679.382874,370.664398,679.702759,372.263824C680.022644,373.863281,680.936279,375.422058,681.733093,375.727814C683.893494,376.556824,690.126953,373.230621,690.729248,370.927429C691.22522,369.030731,695.666748,366,697.950317,366C699.629944,366,699.170837,370.465332,696.848999,376.712494C694.645386,382.64151,692.298828,385.554077,687.962341,387.742737C681.494019,391.007324,679.073486,393.530548,674.789673,401.474152C670.701782,409.054504,670.927002,416.735535,675.545166,427.239105C678.590027,434.16449,678.94281,435.725281,678.045166,438.300354C676.403992,443.008087,676.723267,443.649292,681.25,444.737823C687.553101,446.25351,689.717773,446.177856,690.393005,444.418213z"/>
    <path transform="matrix(0.060527,0,0,-0.060527,70.285286,69.473793)" style="stroke:none;fill:#d33f6a;fill-rule:evenodd" d="M674.707947,348.328369C679.345093,346.669373,690.973206,329.497192,691.013367,324.24881C691.040649,320.686462,695.726257,307.920319,697.827332,305.683838C699.022278,304.411835,700,302.8927,700,302.307983C700,301.723297,700.674988,300.684692,701.5,300C702.325012,299.315308,703,297.482178,703,295.926331C703,294.370514,702.325012,290.506073,701.5,287.338684C700.674988,284.171295,700,280.099335,700,278.289886C700,275.298065,699.727051,275,696.987366,275C692.906799,275,680.560486,271.506012,677.794067,269.568298C676.562561,268.705719,675.205139,268,674.777466,268C673.666443,268,673.827576,272.838776,675.090088,277.385773C675.977844,280.583099,675.829712,282.266144,674.25415,286.885773C673.200989,289.973602,671.400818,295.649994,670.253784,299.5C665.624695,315.037476,662.725891,324.703278,661.55658,328.5C660.681396,331.341705,659.698547,332.592529,658.162354,332.81955C655.955261,333.145721,655.305542,334.452789,656.869995,335.419647C657.34845,335.715363,659.024048,338.554413,660.593506,341.728668C662.162964,344.902893,664.404907,348.850006,665.575623,350.5C666.746338,352.149994,668.021484,354.391205,668.40918,355.480499C669.010376,357.169434,669.393982,356.835938,671.015015,353.21524C672.060486,350.880096,673.72229,348.681,674.707947,348.328369z"/>
    <path transform="matrix(0.060527,0,0,-0.060527,70.285286,69.473793)" style="stroke:none;fill:#d33f6a;fill-rule:evenodd" d="M704.5,267C703.504517,265.899994,701.565002,265,700.190002,265C697.753357,265,697.735901,265.050659,699.5,267C700.495483,268.100006,702.434998,269,703.809998,269C706.246643,269,706.264099,268.949341,704.5,267z"/>
    <path transform="matrix(0.060527,0,0,-0.060527,70.285286,69.473793)" style="stroke:none;fill:#d33f6a;fill-rule:evenodd" d="M741.817871,266.172272C743.664124,264.751862,743.994019,263.82431,743.439209,261.613739C742.548218,258.063873,740.633057,257.355164,737.49231,259.413116C735.626892,260.635345,735,261.920654,735,264.523041C735,267.468689,735.343811,267.996613,737.25,267.977753C738.487488,267.965546,740.54303,267.153076,741.817871,266.172272z"/>
    <path transform="matrix(0.060527,0,0,-0.060527,70.285286,69.473793)" style="stroke:none;fill:#d33f6a;fill-rule:evenodd" d="M716,261.122131C716,257.078674,713.368958,251.244049,711.266968,250.626099C710.295166,250.340393,707.798096,249.804855,705.718018,249.43602L701.935974,248.765411L703.191345,251.632706C704.997803,255.758713,710.164856,262.098724,712.5,263.054565C715.672302,264.353088,716,264.17215,716,261.122131z"/>
    <path transform="matrix(0.060527,0,0,-0.060527,70.285286,69.473793)" style="stroke:none;fill:#d33f6a;fill-rule:evenodd" d="M695,250.311874C695,245.610992,685.814087,238,680.140442,238C677.039673,238,677.47052,239.232697,682.25,244.03511C689.231934,251.050583,695,253.890167,695,250.311874z"/>
    <path transform="matrix(0.060527,0,0,-0.060527,70.285286,69.473793)" style="stroke:none;fill:#d33f6a;fill-rule:evenodd" d="M739,234.351776L741.5,231.808487L734.681519,232.205994C727.928955,232.59967,726.051575,233.611938,726.01532,236.87883C725.988159,239.325363,736.032593,237.370529,739,234.351776z"/>
    <path transform="matrix(0.060527,0,0,-0.060527,70.285286,69.473793)" style="stroke:none;fill:#d33f6a;fill-rule:evenodd" d="M671.763916,325.25C671.250671,310.573639,671.543213,309.091309,677.043396,298.5C679.899658,293,683.083313,287.305542,684.118286,285.845642C685.153198,284.385712,686,282.71405,686,282.130798C686,280.645569,689.381897,279,692.434265,279C694.953979,279,695,279.130798,695,286.290588L695,293.581177L688.75,301.933746C679.099365,314.830902,677.767334,317.519867,677.216736,325.215271C676.763733,331.546082,676.572998,332,674.365662,332C672.135071,332,671.986511,331.614563,671.763916,325.25z"/>
    <path transform="matrix(0.068886,0,0,-0.068886,64.12326,70.561226)" style="stroke:#0000a0;stroke-width:0.05mm;fill:none" d="M761.541687,174.270554C758.435669,173.481583,755,170.899216,755,169.353607C755,166.91922,757.901917,166.658234,759.752319,168.926193C762.337219,172.094269,767.05249,172.13327,768.675476,169C770.249207,165.961945,770.510132,168.52803,769.02478,172.434906C768.048157,175.003479,766.206055,175.455368,761.541687,174.270554z"/>
    <path transform="matrix(0.068886,0,0,-0.068886,64.12326,70.561226)" style="stroke:#0000a0;stroke-width:0.05mm;fill:none" d="M542.424683,163.878113C541.967285,163.138092,539.879333,162.973877,536.290344,163.395691C528.454773,164.31662,520,161.695892,520,158.346176C520,156.110031,522.896973,155.596802,524.963379,157.466843C526.103943,158.499054,529.258484,159.394455,532.926147,159.72702C538.677246,160.248505,539,160.161362,539,158.087006C539,156.88208,538.151489,154.232086,537.114441,152.19812C529.920166,138.088287,522.65332,120.345772,523.337952,118.561729C524.480103,115.585327,525.56781,117.037086,527.974548,124.75C530.354309,132.376587,539.799316,151.991089,542.578796,155.078735C543.360474,155.947052,544,157.184555,544,157.828735C544,158.472931,544.895264,159,545.989502,159C548.531067,159,561.08728,154.014725,562.799377,152.325867C563.514038,151.620911,564.639038,150.696701,565.299377,150.272064C568.87323,147.973907,570.03479,141.223236,567.64801,136.622665C563.700439,129.013718,541.721436,116.548851,518.85907,108.953194C508.843323,105.625603,505.80722,105.335648,503.642853,107.5C501.674683,109.468178,500.36618,109.396637,499.552551,107.276382C498.773529,105.246277,501.371399,102.987396,504.441132,103.025673C510.552307,103.101883,525.034546,107.337189,543,114.302147C549.861084,116.962112,565.745667,126.647713,568.738037,129.99585C576.31604,138.47493,572.647766,150.984497,560.907043,156.70134C558.483154,157.881592,554.47998,159.439117,552.011108,160.162521C549.542175,160.885925,546.729675,162.270309,545.761108,163.238907C543.693665,165.306351,543.348267,165.372513,542.424683,163.878113z"/>
    <path transform="matrix(0.068886,0,0,-0.068886,64.12326,70.561226)" style="stroke:#0000a0;stroke-width:0.05mm;fill:none" d="M750.5,161.229034C733.760193,155.514694,724.034973,147.540176,727.015137,141.971756C728.255188,139.654648,730.682617,140.384399,731.57428,143.342377C733.883057,151.001373,751.919312,161,763.426331,161C767.950378,161,769.417542,159.062332,768.107178,154.818207C765.745056,147.167816,762.894836,140.135223,759.872559,134.5C748.331909,112.981697,743.056763,100.335213,744.588135,97.857407C745.710815,96.040871,749.924683,102.199409,749.96405,105.714188C749.997498,108.705727,756.789795,123.022636,764.095154,135.5C768.050598,142.255737,770.907104,148.623978,772.273376,153.7323C773.281006,157.499741,773.177673,158.286011,771.352356,160.738022C768.391907,164.714996,761.20752,164.884171,750.5,161.229034z"/>
    <path transform="matrix(0.068886,0,0,-0.068886,64.12326,70.561226)" style="stroke:#0000a0;stroke-width:0.05mm;fill:none" d="M917.719849,154.794281C916.223938,152.487244,915,149.889862,915,149.022339C915,148.154816,914.381958,146.557388,913.626587,145.472504C912.871216,144.387634,910.783142,139.899994,908.986389,135.5C905.630432,127.281448,903.304565,124.482536,899.175232,123.693161C896.903625,123.258926,896.835266,123.415962,897.465759,127.620422C897.890808,130.454605,897.748047,132,897.061279,132C896.4776,132,896,132.851852,896,133.893005C896,138.582916,888.684082,136.945023,881.283264,130.598206C880.063599,129.552231,877.250916,127.61422,875.032837,126.291527L871,123.886642L871,126.974709C871,128.673141,870.405457,130.290909,869.678833,130.569748C868.845337,130.889587,868.518127,132.169952,868.792297,134.038361C869.182861,136.699448,868.951721,137,866.514648,137C862.991821,137,857.733154,134.514069,851.5,129.90213C848.75,127.867393,844.346802,125.482033,841.715027,124.601303C836.704712,122.924583,830.97644,122.468063,831.033203,123.75C831.051514,124.162498,834.280029,126.074997,838.207764,128C845.994995,131.816589,848.508057,134.405228,846,136.026688C843.786377,137.457825,839.158875,136.156769,833.422058,132.490326C827.798706,128.896393,824.885681,123.969566,826.706238,121.13176C828.209229,118.788887,836.398804,119.112534,842,121.736137C846.404724,123.799316,846.515198,123.803253,847.217773,121.921967C848.234436,119.199608,850.496765,119.509941,858.72168,123.5C862.689819,125.425003,866.17572,127,866.468201,127C867.4823,127,866.993042,122.919762,865.594971,119.71788C864.822205,117.948036,862.347229,114.530632,860.094971,112.123619C857.842712,109.716614,856,107.54734,856,107.303017C856,107.058708,854.232422,104.753082,852.07196,102.179413C847.507568,96.741852,843.375183,87.224792,844.91156,85.688461C846.203735,84.396286,848.446411,86.231209,851.885986,91.394829C853.32373,93.553131,855.174988,96.307755,856,97.516212C861.528625,105.614487,864.780273,110.94783,865.968567,113.866577C867.341187,117.23806,873.509521,124,875.212402,124C875.71051,124,875.862366,123.586281,875.549805,123.08062C874.640137,121.608681,877.881775,119.0215,879.778931,119.705322C880.725525,120.046509,883.79657,121.827377,886.603516,123.662827C889.410461,125.498283,891.970764,127,892.293152,127C892.61554,127,893.018921,125.3125,893.189636,123.25C893.483765,119.69635,893.673645,119.508087,896.815857,119.65461C898.639587,119.739647,900.928406,120.530243,901.902222,121.411499C903.544067,122.897377,903.755676,122.831673,904.81488,120.506882C906.267212,117.319481,908.736755,117.332123,913.480408,120.551262C917.197998,123.074074,917.255432,123.080292,918.63623,121.108963C919.853882,119.370537,920.446411,119.256172,923.266296,120.21534C925.044861,120.820313,928.587463,123.04435,931.138794,125.157654C933.690125,127.270943,936.041382,129,936.36377,129C936.686218,129,936.690979,127.704979,936.374451,126.122169C935.625,122.375031,937.479736,118.999001,940.285156,119.003738C941.503357,119.005791,943.962524,119.899178,945.75,120.989037C948.371338,122.587303,949,122.686981,949,121.504356C949,117.996429,960.177673,118.895622,967.496704,122.992317C969.148499,123.916924,971.525085,125.21946,972.778015,125.886871C977.402405,128.35025,973.773865,128.803894,968.925232,126.368561C963.384766,123.585732,953,121.949966,953,123.8601C953,124.487053,953.689941,125,954.533264,125C956.947754,125,965.267883,129.55307,967.783325,132.250931C969.770874,134.382629,969.874207,134.859482,968.581299,135.932526C966.205627,137.904175,958.046082,134.849808,953.307129,130.21492C948.710938,125.719727,945.12384,123.858841,941.694763,124.190758C939.148499,124.437233,938.569397,124.897789,938.84198,126.459686C939.364136,129.451828,947.073486,145.003433,950.214111,149.40004C953.052307,153.373322,953.74939,156.418823,952.059631,157.46315C950.855835,158.207153,947.007019,154.116104,946.977783,152.061432C946.965515,151.202652,946.075562,149.375,945,148C943.924438,146.625,943.034485,144.867477,943.022217,144.094391C942.983948,141.67276,938.071777,136.035233,936.519165,136.631012C934.694275,137.331299,926.135498,133.126511,919,128.024094C913.676575,124.217461,908.488892,122.177757,907.258911,123.407753C906.716797,123.94989,909.621948,131.498062,912.297974,136.5C912.886414,137.600006,914.026001,139.850006,914.830322,141.5C915.634705,143.149994,916.835022,145.175003,917.497803,146C918.160583,146.824997,919.757446,149.421188,921.046448,151.769302C923.112061,155.532257,923.215027,156.213547,921.914856,157.513748C920.614624,158.81395,920.117126,158.491425,917.719849,154.794281z"/>
    <path transform="matrix(0.068886,0,0,-0.068886,64.12326,70.561226)" style="stroke:#0000a0;stroke-width:0.05mm;fill:none" d="M841,132.535187C841,132.279541,839.987488,131.579712,838.75,130.980011C836.589355,129.932983,836.577087,129.951447,838.441101,131.444839C840.481384,133.079422,841,133.3004,841,132.535187z"/>
    <path transform="matrix(0.068886,0,0,-0.068886,64.12326,70.561226)" style="stroke:#0000a0;stroke-width:0.05mm;fill:none" d="M865.718262,131.346695C866.063721,130.30896,856.111084,125,853.820129,125C852.249512,125,853.984253,126.976044,858.29834,130.101151C862.401917,133.073761,864.998169,133.509583,865.718262,131.346695z"/>
    <path transform="matrix(0.068886,0,0,-0.068886,64.12326,70.561226)" style="stroke:#0000a0;stroke-width:0.05mm;fill:none" d="M893,131.042328C893,130.580521,890.249268,128.771088,886.887268,127.021347C881.725098,124.33474,880.99707,124.157761,882.205688,125.88324C885.782776,130.990265,893,134.439697,893,131.042328z"/>
    <path transform="matrix(0.068886,0,0,-0.068886,64.12326,70.561226)" style="stroke:#0000a0;stroke-width:0.05mm;fill:none" d="M962.558899,131.468201C961.491272,130.66069,960.141235,130.015945,959.558899,130.035431C958.976501,130.054932,959.625,130.713974,961,131.5C964.239258,133.35173,965.027832,133.335632,962.558899,131.468201z"/>
    <path transform="matrix(0.068886,0,0,-0.068886,64.12326,70.561226)" style="stroke:#0000a0;stroke-width:0.05mm;fill:none" d="M934,131.24054C934,130.485519,932.58252,129.480118,926.121338,125.65226L922.742615,123.650597L923.855835,125.730614C925.970337,129.681656,934,134.04306,934,131.24054z"/>
    <path transform="matrix(0.068886,0,0,-0.068886,64.12326,70.561226)" style="stroke:#0000a0;stroke-width:0.05mm;fill:none" d="M688.072571,155.365143C686.932678,153.91597,686,152.220428,686,151.597275C686,150.974121,684.875,148.808685,683.5,146.785187C682.125,144.761688,681,142.476974,681,141.708038C681,139.646194,677.065796,136.453506,674.954773,136.802261C670.734253,137.499496,660.104004,130.079483,657.98114,124.954514C656.886353,122.31144,656.934204,121.637222,658.314514,120.256897C659.796692,118.774742,660.217285,118.80011,663.550781,120.572639C665.544373,121.63269,668.89502,123.962502,670.996704,125.75C673.098389,127.537498,675.080627,129,675.401794,129C675.7229,129,675.917908,127.271843,675.835144,125.159637C675.75238,123.04744,676.007141,120.79744,676.401367,120.159637C677.465881,118.437157,681.09375,118.759743,684.582336,120.887062C687.599426,122.726891,687.689514,122.726807,688.84082,120.883324C690.195862,118.713478,695.303284,118.356239,699.702942,120.123573C704.737976,122.146103,713.170166,126.482208,713.690796,127.316528C714.752075,129.017426,713.320129,128.762192,707.995911,126.301483C704.973145,124.904442,700.474976,123.702599,698,123.630707C693.283875,123.493721,690.829468,125.045761,694.803223,125.652199C699.610107,126.38578,709,132.270248,709,134.549042C709,139.133423,698.153748,135.820435,691.553284,129.219925C688.061157,125.727798,681.607422,122.829681,679.29718,123.716187C678.58374,123.989967,678,125.095917,678,126.173866C678,128.771988,686.540588,146.373825,688.651123,148.125397C691.953491,150.866135,693.625549,158,690.965576,158C690.514343,158,689.212524,156.814316,688.072571,155.365143z"/>
    <path transform="matrix(0.068886,0,0,-0.068886,64.12326,70.561226)" style="stroke:#0000a0;stroke-width:0.05mm;fill:none" d="M703,132.535187C703,132.279541,701.987488,131.579712,700.75,130.980011C698.589355,129.932983,698.577087,129.951447,700.441101,131.444839C702.481384,133.079422,703,133.3004,703,132.535187z"/>
    <path transform="matrix(0.068886,0,0,-0.068886,64.12326,70.561226)" style="stroke:#0000a0;stroke-width:0.05mm;fill:none" d="M672.376221,130.538071C672.067688,129.734009,670.956787,128.80368,669.907593,128.470673C668.858398,128.13768,668,127.489571,668,127.030441C668,126.571297,666.650024,125.725037,665,125.149841C661.068726,123.779404,661.215759,124.511887,665.695435,128.615128C669.507141,132.106522,673.409058,133.229614,672.376221,130.538071z"/>
    <path transform="matrix(0.068886,0,0,-0.068886,64.12326,70.561226)" style="stroke:#0000a0;stroke-width:0.05mm;fill:none" d="M806.456177,152.5L804.726196,147L798.293579,147C792.194641,147,791.877502,146.88327,792.18042,144.75C792.460876,142.775681,793.069031,142.506882,797.144226,142.556213C802.370239,142.619476,802.342041,142.802246,798.377441,134.55365C797.069824,131.83316,796,128.642899,796,127.464172C796,125.126709,792.630676,123.131432,789.75,123.762993C788.390381,124.061073,787.996582,125.189873,787.98468,128.823318C787.976257,131.395493,787.60144,134.079941,787.151733,134.788757C786.062927,136.504837,782.590149,135.094391,778,131.071869C773.777283,127.371338,772.182617,127.103554,774.38501,130.464813C776.533569,133.743988,776.475098,136.238144,774.259583,135.811478C772.302673,135.434601,765.560364,122.520409,766.514465,120.97657C767.553345,119.295677,769.438599,119.894348,772.813538,122.97686C778.657593,128.314606,782.892944,131.184174,783.956787,130.526703C784.530579,130.172104,785,128.178268,785,126.09597C785,123.640083,785.670715,121.703003,786.909058,120.582291C788.702393,118.959343,789.014771,118.956268,792.060974,120.53154C795.026855,122.065239,795.380493,122.071449,796.201599,120.60424C797.413635,118.438423,800.755432,118.58506,805.264832,121.001953L809,123.003883L809,121.001953C809,119.900871,809.380249,119,809.845032,119C811.507813,119,814,122.703087,814,125.173752C814,127.916862,815.881226,130.019363,820.461975,132.395905C823.153442,133.792252,823.586121,133.779572,825.270813,132.254913C826.871033,130.806732,827.247375,130.777557,828.045715,132.039764C829.434204,134.234848,829.185059,136.99176,827.54126,137.622543C824.891418,138.639374,819.368469,136.010254,814.643127,131.482559C809.728149,126.773201,804.401001,124,800.26947,124C798.057495,124,797.858887,124.303398,798.46936,126.75C798.846741,128.262497,800.678284,132.713364,802.539429,136.640808L805.92334,143.781616L815.061768,144.504883C823.421753,145.166565,824.442566,145.048904,827.046875,143.123474C830.484802,140.58168,831.943054,142.043472,828.846985,144.927948C826.156799,147.434189,821.908203,148.303162,814.574951,147.84697C811.507202,147.656143,808.997864,147.626953,808.998657,147.78212C808.99939,147.937286,809.674988,149.679733,810.5,151.654236C812.49231,156.422577,812.391174,158,810.093079,158C808.65802,158,807.758057,156.639053,806.456177,152.5z"/>
    <path transform="matrix(0.068886,0,0,-0.068886,64.12326,70.561226)" style="stroke:#0000a0;stroke-width:0.05mm;fill:none" d="M581.5,136.456558C577.491272,134.347733,572.241699,129.190903,570.452332,125.603996C568.855835,122.403763,568.532837,119,569.825684,119C571.434753,119,574.793335,123.543747,575.436523,126.590874C575.898865,128.780899,577.189941,130.300491,579.866333,131.804733C583.355957,133.765991,583.7677,133.803711,585.271667,132.299759C586.638245,130.933197,587.15625,130.884811,588.498047,131.998398C589.377197,132.728027,589.96228,134.264374,589.798279,135.412491C589.414856,138.095749,585.542175,138.582993,581.5,136.456558z"/>
    <path transform="matrix(0.068886,0,0,-0.068886,64.12326,70.561226)" style="stroke:#0000a0;stroke-width:0.05mm;fill:none" d="M597.301086,134.462753C592.780273,132.209946,585,124.245857,585,121.871071C585,120.621872,588.334351,119.215874,590,119.762733C590.825012,120.033577,594.033875,121.772781,597.130798,123.627602C600.227783,125.482422,603.040283,127,603.380798,127C603.721375,127,604,125.199997,604,123C604,118.472939,604.931824,118.109016,610.532104,120.448967C612.439453,121.245911,614,121.470909,614,120.948967C614,119.028923,618.474182,120.095337,625.596802,123.713081C629.617493,125.75528,633.225159,127.108177,633.613831,126.719528C635.430969,124.902344,631.360291,117.462761,623.020996,107.36026C614.454468,96.982475,609.906372,88.578568,611.479248,86.033585C612.219727,84.835442,617,87.664215,617,89.30056C617,89.889359,617.962585,91.395729,619.139099,92.648064C620.315613,93.900391,621.778076,95.785301,622.389099,96.836739C623.000122,97.888184,625.075012,101.17762,627,104.146591C628.924988,107.115562,631.400024,111.306633,632.5,113.460083C635.178711,118.70414,640.389343,123.627876,644.031067,124.356216C645.765503,124.703102,647,125.584106,647,126.474998C647,128.583374,643.998901,128.345795,641,126C637.645691,123.376244,637.271729,123.491226,637.784973,126.98848C638.076843,128.976791,637.744019,130.160995,636.790649,130.52684C635.841003,130.891251,635.504272,132.07576,635.792297,134.038361C636.195618,136.786301,635.999451,137,633.073669,137C629.060364,137,623.933228,134.318359,617.118591,128.655106C614.158813,126.195396,610.688904,123.982529,609.407776,123.73761C607.188904,123.313454,607.106628,123.498947,607.67511,127.646156C608.077148,130.579605,607.901245,132,607.135925,132C606.511169,132,606,132.851852,606,133.893005C606,134.934174,605.288208,136.059174,604.418213,136.393005C602.392883,137.170212,603.141907,137.373352,597.301086,134.462753z"/>
    <path transform="matrix(0.068886,0,0,-0.068886,64.12326,70.561226)" style="stroke:#0000a0;stroke-width:0.05mm;fill:none" d="M602.418213,132.393005C604.239807,131.694,604.552979,130,602.860596,130C602.233948,130,599.484924,128.624008,596.751709,126.942238C594.018494,125.260468,591.58667,124.080017,591.347656,124.319008C590.974731,124.691963,599.790344,133,600.559021,133C600.711609,133,601.548218,132.726852,602.418213,132.393005z"/>
    <path transform="matrix(0.068886,0,0,-0.068886,64.12326,70.561226)" style="stroke:#0000a0;stroke-width:0.05mm;fill:none" d="M631.903076,131.616776C632.775513,130.565598,632.744873,130.107635,631.775513,129.708954C631.073975,129.42041,627.804749,127.975891,624.51062,126.498909C618.537476,123.82077,618.526611,123.819817,620.51062,126.14695C623.496338,129.649063,627.774048,132.666122,630.127563,132.929718C630.472717,132.968369,631.271667,132.377548,631.903076,131.616776z"/>
    <path transform="matrix(0.068886,0,0,-0.068886,64.12326,70.561226)" style="stroke:#0000a0;stroke-width:0.05mm;fill:none" d="M622,100.622437C622,100.414787,621.212524,99.627289,620.25,98.872444C618.66394,97.628571,618.628601,97.663948,619.872437,99.25C621.178833,100.915749,622,101.44548,622,100.622437z"/>
</svg>
